Coordinates
version=1
nRows=21
nColumns=33
inDegrees=yes

Units are S.I. units (second, meters, Newtons, ...)
Angles are in degrees.

endheader
time	ground_thorax_rot_x	ground_thorax_rot_y	ground_thorax_rot_z	ground_thorax_tx	ground_thorax_ty	ground_thorax_tz	clav_prot_r	clav_elev_r	scapula_abduction_r	scapula_elevation_r	scapula_upward_rot_r	scapula_winging_r	shoulder_elv_r	plane_of_elev_r	axial_rot_r	elbow_flexion_r	pro_sup_r	wrist_flex_r	wrist_dev_r	clav_prot_l	clav_elev_l	scapula_abduction_l	scapula_elevation_l	scapula_upward_rot_l	scapula_winging_l	shoulder_elv_l	plane_of_elev_l	axial_rot_l	elbow_flexion_l	pro_sup_l	wrist_flex_l	wrist_dev_l
      8.89000000	    -40.79693696	    -12.93121078	      9.29503000	    -91.89267206	    795.45061142	     -4.67228016	      7.54471334	    -45.00000000	     34.64363377	    -45.00000000	    -38.39496887	  -2970.44367707	  -3174.79350411	     28.88146453	     82.87436855	    730.69493142	     27.93198865	     17.78221460	      9.63901458	     17.78887336	     40.16372894	    -40.59296279	    -45.00000000	    -45.00000000	   1517.67831493	  -2619.40255376	    135.93813967	   -179.99999979	    725.34838827	     23.79078317	     11.46556422	    -19.28271901
      8.90000000	    -40.81811654	    -12.89073586	      9.27048717	    -97.49773658	    795.46109272	     -5.09256500	      7.70347546	    -45.00000000	     34.15479086	    -45.00000000	    -39.61394267	  -2970.50741680	  -3174.51861972	     28.94250718	     83.01269803	    730.67423795	     28.78137536	     17.77087261	      9.57612645	     17.68296983	     40.08577043	    -40.12779991	    -45.00000000	    -45.00000000	   1517.67085549	  -2619.50158617	    136.13385322	   -179.99999979	    725.41057323	     25.26822432	     11.58848221	    -19.52871223
      8.91000000	    -40.88108692	    -12.89846480	      9.30912957	   -103.10901659	    795.58033037	     -5.49465400	      7.71616847	    -45.00000000	     33.72661675	    -45.00000000	    -40.55563405	  -2970.72582751	  -3174.35037478	     28.90538375	     83.64398708	    730.82107269	     29.69925134	     17.81999385	      9.46135492	     17.45479852	     40.02486473	    -39.68548846	    -45.00000000	    -45.00000000	   1517.82713280	  -2619.54439831	    136.24838320	   -179.99999979	    725.50592310	     26.80965020	     11.70178060	    -19.80552514
      8.92000000	    -40.97494769	    -12.84530914	      9.35946961	   -108.70112342	    795.81325359	     -5.87468622	      7.85113076	    -45.00000000	     33.36983996	    -45.00000000	    -41.42514317	  -2971.08448519	  -3174.35898719	     28.87331985	     84.53615506	    730.92042514	     30.68823194	     17.79036205	      9.24506031	     17.28107526	     39.98358437	    -39.29033148	    -45.00000000	    -45.00000000	   1517.91345060	  -2619.55738857	    136.42401273	   -179.99999979	    725.58083763	     28.40393587	     11.89785269	    -20.12505953
      8.93000000	    -40.99413838	    -12.83860569	      9.38778738	   -114.25791575	    796.16403242	     -6.22908947	      8.03218484	    -45.00000000	     32.97651275	    -45.00000000	    -42.28755057	  -2971.32453956	  -3174.16200923	     28.88045870	     85.38938879	    731.06075808	     31.72553434	     17.83336657	      9.12547231	     17.14158745	     39.80359445	    -38.75583942	    -45.00000000	    -45.00000000	   1517.98736932	  -2619.51036593	    136.56237428	   -179.99999979	    725.70827221	     29.97113158	     11.99442734	    -20.45108202
      8.94000000	    -41.11590379	    -12.70832119	      9.29382847	   -119.75925660	    796.64149232	     -6.55944889	      7.95907069	    -45.00000000	     32.65939655	    -45.00000000	    -43.24415324	  -2971.46078256	  -3174.01798261	     28.83166076	     84.98970641	    731.17831200	     32.77160458	     17.94162898	      9.17279125	     17.00920683	     39.79781996	    -38.41597426	    -45.00000000	    -45.00000000	   1518.01470386	  -2619.59617286	    136.75020757	   -179.99999979	    725.76345973	     31.70446199	     12.00343043	    -20.74312294
      8.95000000	    -41.11536906	    -12.65094337	      9.27835611	   -125.18590869	    797.24699093	     -6.86353505	      8.08214075	    -45.00000000	     32.44333225	    -45.00000000	    -44.13732540	  -2971.65789212	  -3173.83314245	     28.82130025	     85.33269478	    731.25466828	     33.88266756	     18.00395869	      9.12472934	     16.85871561	     39.69550681	    -37.92711965	    -45.00000000	    -45.00000000	   1518.01198819	  -2619.65972354	    136.93295845	   -179.99999979	    725.88172485	     33.37132385	     12.02541469	    -21.07246817
      8.96000000	    -41.13134230	    -12.51188464	      9.24490648	   -130.51288959	    797.98498944	     -7.14472031	      8.29509544	    -45.00000000	     32.12764787	    -45.00000000	    -44.58665893	  -2972.10275134	  -3173.83491605	     28.84195882	     86.58356806	    731.33538726	     34.85014945	     17.90506743	      8.80481471	     16.65396385	     39.62319233	    -37.58414481	    -45.00000000	    -45.00000000	   1517.99181148	  -2619.77537666	    137.13120013	   -179.99999979	    725.91315478	     34.94054502	     12.23393057	    -21.48718794
      8.97000000	    -41.19106422	    -12.39706118	      9.26109293	   -135.72312800	    798.85531281	     -7.40366959	      8.41350703	    -45.00000000	     31.89894226	    -45.00000000	    -45.00000000	  -2972.48535098	  -3173.80023020	     28.74866879	     87.43478023	    731.45567958	     35.68323561	     17.91122669	      8.65349041	     16.60554684	     39.52896671	    -37.17136624	    -45.00000000	    -45.00000000	   1517.95855256	  -2619.77259923	    137.34394065	   -179.99999979	    725.98954660	     36.45991644	     12.25406446	    -21.82731417
      8.98000000	    -41.19842134	    -12.05296605	      8.90783059	   -140.80882442	    799.85643814	     -7.64341539	      8.35927762	    -45.00000000	     31.81678237	    -45.00000000	    -45.00000000	  -2972.71160529	  -3173.72391310	     28.61317784	     87.58856222	    731.54378775	     36.39915633	     17.98586348	      8.63053438	     16.43160150	     39.50747427	    -36.86467649	    -45.00000000	    -45.00000000	   1518.05877702	  -2619.84652346	    137.33805632	   -179.99999979	    726.13410014	     38.01761879	     12.23484921	    -22.16554255
      8.99000000	    -41.25897866	    -11.76697462	      8.64871798	   -145.74698134	    800.97571719	     -7.86245159	      8.38655441	    -45.00000000	     31.83034621	    -45.00000000	    -45.00000000	  -2972.98316483	  -3173.73054238	     28.41925399	     88.00752433	    731.69705077	     37.01799480	     18.06020677	      8.58612475	     16.31946954	     39.44305178	    -36.53625843	    -45.00000000	    -45.00000000	   1517.99276540	  -2619.83194091	    137.51097011	   -179.99999979	    726.25166434	     39.52428097	     12.16728789	    -22.47790611
      9.00000000	    -41.23039194	    -11.69000789	      8.75346921	   -150.52488537	    802.20437091	     -8.06442348	      8.47178827	    -45.00000000	     31.81650399	    -45.00000000	    -45.00000000	  -2973.58729114	  -3173.76003726	     28.28798753	     89.19712010	    731.75763597	     37.54204795	     18.05470957	      8.44916886	     16.47622589	     39.16948246	    -36.17286938	    -45.00000000	    -45.00000000	   1517.83503988	  -2619.94896668	    137.89819181	   -179.99999979	    726.34644112	     40.83980362	     11.98394218	    -22.66465089
      9.01000000	    -41.28266619	    -11.42707177	      8.54862900	   -155.13693103	    803.53677244	     -8.25382565	      8.44647523	    -45.00000000	     31.69627086	    -45.00000000	    -45.00000000	  -2973.91061676	  -3173.74781330	     28.22246915	     89.62136322	    731.83676577	     37.91220869	     18.07517718	      8.35894695	     16.38412544	     39.06964175	    -35.86792483	    -45.00000000	    -45.00000000	   1517.85854325	  -2619.97624541	    138.02968625	   -179.99999979	    726.39992454	     42.12977570	     11.89495221	    -22.90080362
      9.02000000	    -41.38609624	    -10.99865480	      8.16093834	   -159.56369427	    804.96112640	     -8.43486662	      8.46918674	    -45.00000000	     31.67609436	    -45.00000000	    -45.00000000	  -2973.93969335	  -3173.62165259	     28.04039003	     89.14676373	    731.96130693	     38.15715231	     18.17722341	      8.37801898	     16.06711552	     39.18899718	    -35.61943791	    -45.00000000	    -45.00000000	   1518.04149225	  -2619.88840611	    137.91511435	   -179.99999979	    726.50556504	     43.49259838	     11.94171379	    -23.29369787
      9.03000000	    -41.40716524	    -10.91942943	      8.13435958	   -163.79455076	    806.46407449	     -8.61184296	      8.44809291	    -45.00000000	     31.66861168	    -45.00000000	    -45.00000000	  -2974.42286633	  -3173.73143609	     28.04506291	     90.25156451	    731.98610441	     38.39330176	     18.15070555	      8.24853379	     16.15882574	     38.88196814	    -35.24120586	    -45.00000000	    -45.00000000	   1518.04305096	  -2619.95860934	    138.19773056	   -179.99999979	    726.67222320	     44.48836224	     11.67726066	    -23.36045745
      9.04000000	    -41.45410984	    -10.60972235	      7.92158348	   -167.82197188	    808.03730592	     -8.78892381	      8.45591253	    -45.00000000	     31.66568469	    -45.00000000	    -45.00000000	  -2974.71711459	  -3173.71781029	     28.04525961	     90.54508162	    732.06494406	     38.48558646	     18.19124194	      8.19881363	     16.02760463	     38.78269731	    -34.92914314	    -45.00000000	    -45.00000000	   1518.11088289	  -2619.89325333	    138.19529816	   -179.99999979	    726.73672302	     45.41166047	     11.53059417	    -23.46408338
      9.05000000	    -41.48328674	    -10.22110183	      7.68641420	   -171.63392393	    809.66596484	     -8.96909254	      8.43194157	    -45.00000000	     31.59564326	    -45.00000000	    -45.00000000	  -2974.94939520	  -3173.64580041	     28.00526319	     90.60298802	    732.17680879	     38.48948860	     18.21420638	      8.11075487	     15.84374168	     38.84949184	    -34.76799205	    -45.00000000	    -45.00000000	   1518.11845181	  -2619.89040260	    138.25313580	   -179.99999979	    726.71693392	     46.25967693	     11.48395281	    -23.62873187
      9.06000000	    -41.50271619	    -10.00928419	      7.57978038	   -175.21882550	    811.33431164	     -9.15406447	      8.43842701	    -45.00000000	     31.54490159	    -45.00000000	    -45.00000000	  -2975.18335692	  -3173.57365690	     27.95382114	     90.66375869	    732.22721702	     38.44913448	     18.21897218	      8.03867212	     15.64995553	     38.84161983	    -34.50391265	    -45.00000000	    -45.00000000	   1518.25714951	  -2619.89595698	    138.30081645	   -179.99999979	    726.72397146	     46.98040764	     11.47046711	    -23.84533785
      9.07000000	    -41.49201354	     -9.72072412	      7.51430867	   -178.57128729	    813.02705500	     -9.34424801	      8.45844472	    -45.00000000	     31.48263226	    -45.00000000	    -45.00000000	  -2975.51668214	  -3173.48411477	     27.94718565	     90.87241342	    732.33215536	     38.37763569	     18.21222093	      7.92496692	     15.52907954	     38.89714809	    -34.37192108	    -45.00000000	    -45.00000000	   1518.21383660	  -2619.91495672	    138.50451715	   -179.99999979	    726.75591365	     47.54641363	     11.38774221	    -23.94155500
      9.08000000	    -41.53714438	     -9.53026691	      7.40136751	   -181.68423439	    814.72804728	     -9.53828342	      8.49349247	    -45.00000000	     31.36652710	    -45.00000000	    -45.00000000	  -2975.70584730	  -3173.36792795	     27.96921664	     90.73244872	    732.44891145	     38.25929652	     18.24012074	      7.87163399	     15.48623967	     38.77942341	    -34.13497568	    -45.00000000	    -45.00000000	   1518.39441439	  -2619.88048140	    138.49056248	   -179.99999979	    726.70801776	     47.98998082	     11.35962143	    -24.05232182
      9.09000000	    -41.52877285	     -9.26668704	      7.30696465	   -184.55274297	    816.42102883	     -9.73331322	      8.46458802	    -45.00000000	     31.50783337	    -45.00000000	    -45.00000000	  -2975.90011222	  -3173.39737726	     27.87286694	     90.93920219	    732.47046357	     38.16477051	     18.22310643	      7.80841312	     15.32741345	     38.86175992	    -34.03028761	    -45.00000000	    -45.00000000	   1518.49416011	  -2619.92670173	    138.62838970	   -179.99999979	    726.84314655	     48.25661515	     11.31196000	    -24.19211815
